<?xml version="1.0" encoding="utf-8"?>
<svg viewBox="50.501 294.658 405.676 49.665" xmlns="http://www.w3.org/2000/svg">
  <g data-paper-data="{&quot;isGlobalGroup&quot;:true,&quot;bounds&quot;:{&quot;x&quot;:75.69261354967674,&quot;y&quot;:114.99999999999997,&quot;width&quot;:398.6147729006466,&quot;height&quot;:240.00000000000003}}" fill="#8034DA" stroke-miterlimit="10"  text-anchor="none" style="mix-blend-mode:normal" transform="matrix(1, 0, 0, 1, -22.078439712524414, -13.798065185546875)">
    <g data-paper-data="{&quot;isPrimaryText&quot;:true}">
      <path d="M 93.778 355 C 103.838 355 111.983 346.856 111.983 336.915 L 111.983 314.278 C 111.983 312.242 110.306 310.685 108.39 310.685 C 106.354 310.685 104.677 312.242 104.677 314.278 C 104.677 223.809 104.677 329.668 104.677 336.915 C 104.677 342.903 99.767 347.814 93.778 347.814 C 87.789 347.814 82.878 342.904 82.878 336.914 L 82.878 332.842 C 82.878 330.806 81.322 329.249 79.286 329.249 C 77.25 329.249 75.693 330.806 75.693 332.842 L 75.693 336.915 C 75.693 346.855 83.837 355 93.778 355 L 93.778 355 Z" data-paper-data="{&quot;glyphName&quot;:&quot;J&quot;,&quot;glyphIndex&quot;:0,&quot;firstGlyphOfWord&quot;:true,&quot;word&quot;:1}"/>
      <path d="M138.812 355c12.216 0 22.038-9.941 22.038-22.158 0-12.216-9.822-22.157-22.038-22.157-12.097 0-22.038 9.94-22.038 22.157S126.714 355 138.812 355zm0-37.129c8.144 0 14.851 6.707 14.851 14.971 0 8.265-6.707 14.972-14.851 14.972-8.145 0-14.732-6.707-14.732-14.972 0-8.264 6.587-14.97 14.732-14.97z" data-paper-data="{&quot;glyphName&quot;:&quot;O&quot;,&quot;glyphIndex&quot;:1,&quot;word&quot;:1}"/>
      <path d="M183.965 355c10.3 0 18.325-5.63 18.325-12.935 0-7.186-8.025-12.816-18.325-12.816-6.348 0-11.019-2.994-11.019-5.749 0-2.635 4.671-5.629 11.02-5.629 3.592 0 6.826.958 9.102 2.635 0 0 .12 0 .12.12.479.36.958.718 1.197 1.198 1.198 1.557 3.474 1.916 5.03.718 1.677-1.198 2.037-3.473.839-5.03-2.874-3.833-8.144-6.348-14.253-6.827h-2.036c-10.18 0-18.325 5.63-18.325 12.815 0 7.306 8.145 12.936 18.325 12.936 6.348 0 11.02 2.994 11.02 5.629 0 2.755-4.672 5.749-11.02 5.749-3.593 0-6.827-.958-8.983-2.635-.12 0-.12 0-.12-.12-.478-.36-.957-.719-1.197-1.198-1.198-1.557-3.473-1.916-5.15-.718-1.557 1.078-1.917 3.353-.719 5.03 2.755 3.833 8.025 6.348 14.253 6.827h1.916z" data-paper-data="{&quot;glyphName&quot;:&quot;S&quot;,&quot;glyphIndex&quot;:2,&quot;word&quot;:1}"/>
      <path d="M239.778 355c1.917 0 3.593-1.557 3.593-3.593s-1.676-3.593-3.593-3.593h-29.104c-2.036 0-3.593 1.557-3.593 3.593s1.557 3.593 3.593 3.593zm.24-18.564c1.916 0 3.593-1.557 3.593-3.594 0-2.036-1.677-3.593-3.593-3.593h-29.344c-2.036 0-3.593 1.557-3.593 3.593 0 2.037 1.557 3.594 3.593 3.594zm-.24-18.565c1.917 0 3.593-1.557 3.593-3.593s-1.676-3.593-3.593-3.593h-29.104c-2.036 0-3.593 1.557-3.593 3.593s1.557 3.593 3.593 3.593z" data-paper-data="{&quot;glyphName&quot;:&quot;E&quot;,&quot;glyphIndex&quot;:3,&quot;lastGlyphOfWord&quot;:true,&quot;word&quot;:1}"/>
      <path d="M275.743 355c1.043 0 1.955-.782 1.955-1.955v-18.117h19.55c6.648 0 12.122-5.474 12.122-12.122 0-6.647-5.474-12.121-12.121-12.121h-21.506c-1.173 0-1.955.912-1.955 1.955 0 1.173.782 2.085 1.955 2.085h21.506c4.431 0 8.08 3.65 8.08 8.081 0 4.432-3.649 8.081-8.08 8.081h-21.506c-1.173 0-1.955.913-1.955 1.955v20.203c0 1.173.782 1.955 1.955 1.955z" data-paper-data="{&quot;glyphName&quot;:&quot;P&quot;,&quot;glyphIndex&quot;:4,&quot;firstGlyphOfWord&quot;:true,&quot;fontStyleEffect&quot;:true,&quot;word&quot;:2}"/>
      <path d="M348.486 355c1.043 0 1.955-.782 1.955-1.955 0-1.043-.912-1.955-1.955-1.955h-31.672c-1.173 0-1.955.912-1.955 1.955 0 1.173.782 1.955 1.955 1.955zm.26-20.072c1.043 0 1.956-.913 1.956-2.086 0-1.042-.913-1.955-1.955-1.955h-31.933c-1.173 0-1.955.913-1.955 1.955 0 1.173.782 2.086 1.955 2.086zm-.26-20.203c1.043 0 1.955-.912 1.955-2.085 0-1.043-.912-1.955-1.955-1.955h-31.672c-1.173 0-1.955.912-1.955 1.955 0 1.173.782 2.085 1.955 2.085z" data-paper-data="{&quot;glyphName&quot;:&quot;E&quot;,&quot;glyphIndex&quot;:5,&quot;fontStyleEffect&quot;:true,&quot;word&quot;:2}"/>
      <path d="M377.957 334.928h1.694c6.647 0 12.121-5.474 12.121-12.122 0-6.647-5.474-12.121-12.121-12.121h-21.506c-1.173 0-1.955.912-1.955 1.955v40.405c0 1.173.782 1.955 1.955 1.955 1.043 0 1.955-.782 1.955-1.955v-38.32h19.551c4.432 0 8.081 3.65 8.081 8.081 0 4.432-3.65 8.081-8.081 8.081h-5.995c0 .13-.13.13-.13.13h-.262s-.13 0-.13.131h-.13c-.13.13-.13.13-.261.13 0 .13 0 .13-.13.13 0 0 0 .131-.13.131 0 .13 0 .13-.131.13 0 .13 0 .13-.13.261v.13l-.13.13v.261l-.131.13v.652s.13 0 .13.13v.131c0 .13 0 .13.13.26v.131c.131 0 .131.13.131.13v.13l15.901 20.203a2.16 2.16 0 0 0 1.564.652c.391 0 .782-.13 1.173-.391.782-.652 1.043-1.825.261-2.737z" data-paper-data="{&quot;glyphName&quot;:&quot;R&quot;,&quot;glyphIndex&quot;:6,&quot;fontStyleEffect&quot;:true,&quot;word&quot;:2}"/>
      <path d="M430.888 355c1.043 0 1.955-.782 1.955-1.955 0-1.043-.912-1.955-1.955-1.955h-31.672c-1.173 0-1.955.912-1.955 1.955 0 1.173.782 1.955 1.955 1.955zm.26-20.072c1.044 0 1.956-.913 1.956-2.086 0-1.042-.912-1.955-1.955-1.955h-31.933c-1.173 0-1.955.913-1.955 1.955 0 1.173.782 2.086 1.955 2.086zm-.26-20.203c1.043 0 1.955-.912 1.955-2.085 0-1.043-.912-1.955-1.955-1.955h-31.672c-1.173 0-1.955.912-1.955 1.955 0 1.173.782 2.085 1.955 2.085z" data-paper-data="{&quot;glyphName&quot;:&quot;E&quot;,&quot;glyphIndex&quot;:7,&quot;fontStyleEffect&quot;:true,&quot;word&quot;:2}"/>
      <path d="M472.352 355c1.043 0 1.955-.782 1.955-1.955 0-1.043-.912-1.955-1.955-1.955h-27.631l29.065-37.147c.521-.651.652-1.433.26-2.085-.26-.652-1.042-1.173-1.694-1.173H440.68c-1.173 0-1.955.912-1.955 1.955 0 1.173.782 2.085 1.955 2.085h27.501l-29.065 37.147c-.521.652-.521 1.434-.26 2.085A2.077 2.077 0 0 0 440.68 355z" data-paper-data="{&quot;glyphName&quot;:&quot;Z&quot;,&quot;glyphIndex&quot;:8,&quot;lastGlyphOfWord&quot;:true,&quot;fontStyleEffect&quot;:true,&quot;word&quot;:2}"/>
    </g>
    <g data-paper-data="{&quot;selectedEffects&quot;:{&quot;container&quot;:&quot;&quot;,&quot;transformation&quot;:&quot;&quot;,&quot;pattern&quot;:&quot;&quot;},&quot;initialText&quot;:&quot;JP&quot;,&quot;isIcon&quot;:&quot;true&quot;,&quot;iconType&quot;:&quot;initial&quot;,&quot;iconStyle&quot;:&quot;standalone&quot;,&quot;rawInitialId&quot;:543,&quot;monogramSpecial&quot;:&quot;melted-letters&quot;,&quot;bounds&quot;:{&quot;x&quot;:208.75479921589687,&quot;y&quot;:114.99999999999997,&quot;width&quot;:132.4904015682062,&quot;height&quot;:164.38053310846053},&quot;fillRule&quot;:&quot;nonzero&quot;,&quot;suitableAsStandaloneIcon&quot;:true}"/>
  </g>
</svg>
